<svg id="Layer_2" data-name="Layer 2" xmlns="http://www.w3.org/2000/svg" xmlns:xlink="http://www.w3.org/1999/xlink" viewBox="0 0 330.98 77.82"><defs><linearGradient id="linear-gradient" x1="23.52" y1="56.92" x2="23.52" y2="8.29" gradientUnits="userSpaceOnUse"><stop offset="0" stop-color="#d7dce0"/><stop offset="1" stop-color="#fff"/></linearGradient><linearGradient id="linear-gradient-2" x1="60.66" x2="60.66" y2="20.1" xlink:href="#linear-gradient"/><linearGradient id="linear-gradient-3" x1="110.67" x2="110.67" xlink:href="#linear-gradient"/><linearGradient id="linear-gradient-4" x1="160.54" x2="160.54" y2="19.68" xlink:href="#linear-gradient"/><linearGradient id="linear-gradient-5" x1="193.39" x2="193.39" y2="20.1" xlink:href="#linear-gradient"/><linearGradient id="linear-gradient-6" x1="266.76" y1="74.77" x2="266.76" y2="0" gradientUnits="userSpaceOnUse"><stop offset="0" stop-color="#2351b0"/><stop offset="1" stop-color="#4a79ce"/></linearGradient><style>.cls-4{stroke-width:0;fill:#fff}</style></defs><g id="Layer_1-2" data-name="Layer 1"><path class="cls-4" d="M3.69 74.13h5.17c.61 0 .96-.24 1.13-.42.23-.26.36-.71.42-1.04.06-.32.05-.66-.19-.94-.28-.32-.94-.46-2-.71l-1.5-.36c-.64-.14-1.55-.46-1.9-1-.25-.39-.32-.89-.21-1.5.12-.66.39-1.14.7-1.46.67-.73 1.48-.78 2.32-.78h4.32l-.14.8H7.13c-.22 0-.68.02-1.06.31-.37.27-.46.68-.53 1.07-.06.32-.15.83.19 1.17.25.31 1.14.56 1.44.61l1.57.37c1.04.26 1.79.44 2.25.85.46.46.46.97.35 1.57-.07.39-.29 1.43-1.1 1.92-.48.32-1.13.34-1.47.34H3.55l.14-.8ZM18.06 74.93h-.6c-.56 0-1.15-.12-1.49-.53-.47-.54-.36-1.41-.17-2.5l.92-5.19h-1.24l.14-.8h1.24l.51-2.89h.89l-.51 2.89h2.48l-.14.8h-2.48l-.88 5-.11.61c-.11.65-.12 1.28.23 1.58.18.13.54.22 1.56.22h.48l-.14.8h-.68ZM23.17 69.01c.17-.94.42-1.7 1.22-2.36.46-.36 1.12-.73 2.34-.73h.61l-.14.8h-.54c-.49 0-1.25.07-1.85.63-.47.46-.66 1.14-.79 1.87l-1.01 5.72h-.89l1.04-5.92ZM31.59 74.93c-.75 0-1.62-.17-2.19-1.11-.54-.9-.38-1.99-.14-3.33.22-1.28.56-2.77 1.87-3.74.94-.68 2.06-.8 2.97-.8.63 0 1.55.09 2.21.51.72.48 1.2 1.41.94 2.86-.06.36-.2.85-.58 1.14-.32.25-.75.27-1 .27h-5.5c-.11.53-.22 1.36-.17 1.84.06.73.57 1.57 1.73 1.57h4.43l-.14.8h-4.43Zm4.22-5c.29 0 .42-.24.45-.41l.03-.15c.05-.29.15-1.14-.29-1.84-.49-.76-1.41-.78-2.19-.78-.9 0-1.88.05-2.69 1.09-.46.6-.62 1.22-.79 2.09h5.5ZM46.26 65.91c.61 0 1.18.24 1.47.63.38.53.32 1.26.23 1.8l-.95 5.39c-.05.26-.13.67-.47.94-.32.26-.74.26-1.07.26H42c-.53 0-1.14-.02-1.56-.41-.66-.58-.47-1.85-.38-2.38.13-.73.36-1.58 1.12-2.13.57-.41 1.24-.48 1.77-.48h3.91l.24-1.34c.05-.29.02-.8-.15-1.07-.15-.22-.46-.41-.88-.41H41.7l.14-.8h4.42Zm-3.66 4.42c-.53 0-.9.26-1.07.44-.27.29-.42.77-.53 1.39-.1.54-.17 1.17.08 1.56.15.22.42.39.82.39h3.62c.26.07.62-.22.58-.41l.6-3.39h-4.1ZM52.35 67.42c.06-.34.15-.73.38-1.02.37-.46.85-.49 1.11-.49h8.37c.73 0 1.39.14 1.79.56.48.49.47 1.29.34 2.04l-1.13 6.41h-.89l1.14-6.48c.07-.41.12-.94-.15-1.29-.32-.41-.87-.44-1.27-.44h-3.05l-1.45 8.22h-.88l1.45-8.22h-4.22c-.15 0-.33.02-.47.15-.14.12-.15.29-.19.48l-1.34 7.59H51l1.32-7.5ZM69.06 65.91h.89l-1.59 9.02h-.89l1.59-9.02Zm.25-1.63.22-1.26h.95l-.22 1.26h-.95ZM73.97 67.08c.04-.25.12-.58.35-.83.31-.32.67-.34.94-.34h3.23c.87 0 1.53.12 1.98.66.22.27.55.85.33 2.09l-1.1 6.26h-.89l1.06-6.04c.14-.77.15-1.23-.11-1.62-.31-.48-.77-.56-1.36-.56h-3.2c-.24 0-.31.1-.35.34l-1.39 7.88h-.89l1.38-7.84ZM87.08 74.93c-.97 0-2.05-.07-2.55-1.17-.46-.99-.26-2.5-.07-3.55.19-1.07.5-2.42 1.58-3.37.87-.77 1.75-.92 2.85-.92h2.25c.48 0 .98.03 1.32.32.4.34.37.87.31 1.26l-1.13 6.4c-.2 1.11-.51 2.19-1.25 2.93-.98.92-2.46 1-3.03 1h-3.61l.14-.8h3.61c.31 0 1.45-.02 2.12-.56.48-.39.81-1.04.92-1.53h-3.45Zm4.81-7.49c.04-.25.04-.44-.15-.6-.17-.12-.33-.14-.52-.14h-2.79c-.32 0-1.1.05-1.78.63-.86.73-1.12 2.02-1.3 3.03-.23 1.31-.29 2.6.14 3.18.31.46.82.58 1.26.58h3.97l1.18-6.69ZM102.16 74.13h5.17c.61 0 .96-.24 1.13-.42.23-.26.36-.71.42-1.04.06-.32.05-.66-.19-.94-.28-.32-.94-.46-2-.71l-1.5-.36c-.64-.14-1.55-.46-1.9-1-.25-.39-.32-.89-.21-1.5.12-.66.39-1.14.7-1.46.67-.73 1.48-.78 2.32-.78h4.32l-.14.8h-4.68c-.22 0-.68.02-1.06.31-.37.27-.46.68-.53 1.07-.06.32-.15.83.18 1.17.25.31 1.14.56 1.44.61l1.57.37c1.04.26 1.79.44 2.25.85.46.46.46.97.35 1.57-.07.39-.29 1.43-1.1 1.92-.48.32-1.13.34-1.47.34h-5.21l.14-.8ZM122.13 66.8c.84.95.67 2.59.49 3.57-.34 1.95-1.1 3.08-1.77 3.64-1.17.95-2.7 1.02-3.52 1.02s-2.32-.07-3.16-1.02c-.88-1-.68-2.5-.5-3.54.19-1.09.6-2.72 1.77-3.67 1.02-.87 2.39-.99 3.51-.99s2.41.12 3.16.99Zm-7.27 6.57c.59.78 1.7.87 2.62.87s2.06-.08 2.93-.87c.88-.83 1.12-2.18 1.24-2.91.14-.8.39-2.19-.18-3.01-.53-.77-1.81-.83-2.64-.83s-2.14.07-2.94.83c-.86.82-1.1 2.21-1.25 3.01-.13.71-.41 2.11.22 2.91ZM127.83 63.02h.89l-2.1 11.91h-.89l2.1-11.91ZM137.63 74.65c-.39.27-.92.27-1.41.27h-2.45c-.95 0-1.58-.08-2.09-.61-.6-.63-.48-1.55-.38-2.11l1.11-6.29h.89l-1.06 6.02c-.17.95-.07 1.34.07 1.6.3.53.95.6 1.68.6h2.5c.22 0 .47-.05.63-.19.22-.19.25-.43.27-.56l1.32-7.47h.88l-1.34 7.59c-.06.36-.18.83-.63 1.16ZM145.59 74.93h-.6c-.56 0-1.15-.12-1.49-.53-.47-.54-.36-1.41-.17-2.5l.92-5.19h-1.24l.14-.8h1.24l.51-2.89h.89l-.51 2.89h2.48l-.14.8h-2.48l-.88 5-.11.61c-.11.65-.12 1.28.23 1.58.18.13.54.22 1.56.22h.48l-.14.8h-.68ZM151.26 65.91h.89l-1.59 9.02h-.89l1.59-9.02Zm.25-1.63.22-1.26h.95l-.22 1.26h-.95ZM163.67 66.8c.84.95.67 2.59.49 3.57-.34 1.95-1.1 3.08-1.77 3.64-1.17.95-2.7 1.02-3.52 1.02s-2.32-.07-3.16-1.02c-.88-1-.68-2.5-.5-3.54.19-1.09.6-2.72 1.77-3.67 1.02-.87 2.39-.99 3.51-.99s2.41.12 3.16.99Zm-7.27 6.57c.59.78 1.7.87 2.62.87s2.06-.08 2.93-.87c.88-.83 1.12-2.18 1.24-2.91.14-.8.39-2.19-.18-3.01-.53-.77-1.81-.83-2.64-.83s-2.14.07-2.94.83c-.86.82-1.1 2.21-1.25 3.01-.13.71-.41 2.11.22 2.91ZM168.65 67.08c.04-.25.12-.58.35-.83.31-.32.67-.34.95-.34h3.23c.87 0 1.53.12 1.98.66.22.27.55.85.33 2.09l-1.1 6.26h-.88l1.06-6.04c.13-.77.15-1.23-.11-1.62-.31-.48-.77-.56-1.36-.56h-3.2c-.24 0-.31.1-.35.34l-1.39 7.88h-.89l1.38-7.84ZM178.38 74.13h5.17c.61 0 .96-.24 1.13-.42.23-.26.37-.71.42-1.04.06-.32.05-.66-.19-.94-.28-.32-.94-.46-2-.71l-1.5-.36c-.64-.14-1.55-.46-1.9-1-.25-.39-.32-.89-.21-1.5.12-.66.39-1.14.7-1.46.67-.73 1.48-.78 2.32-.78h4.32l-.14.8h-4.68c-.22 0-.68.02-1.06.31-.37.27-.46.68-.53 1.07-.06.32-.15.83.18 1.17.25.31 1.14.56 1.44.61l1.57.37c1.04.26 1.79.44 2.25.85.46.46.46.97.35 1.57-.07.39-.29 1.43-1.1 1.92-.48.32-1.13.34-1.47.34h-5.21l.14-.8Z"/><path d="M17.99 56.92C5.07 56.92 0 50.39 0 40.11c0-2.71.28-5.7.97-8.89C4.17 15.93 9.93 8.29 26.96 8.29h20.08l-2.08 9.73H31.07c-11.12 0-14.87 2.78-17.37 14.59-.56 2.71-.9 4.93-.9 6.74 0 6.18 3.54 7.85 12.09 7.85h14.59l-2.08 9.73H18.02Z" style="stroke-width:0;fill:url(#linear-gradient)"/><path d="M71.6 20.1c6.18 0 9.17 3.82 9.17 8.82 0 .9-.07 1.74-.28 2.85l-3.82 18.2c-.97 4.52-3.26 6.95-8.48 6.95H48.95c-5.42 0-8.41-3.54-8.41-9.03 0-1.18.14-2.78.35-4.17 1.18-7.02 5-9.79 11.6-9.79h16.74l.35-1.6c.07-.49.14-.83.14-1.25 0-2.08-1.39-3.2-3.89-3.2H47.21l1.67-7.78H71.6ZM56.04 41.43c-2.08 0-3.33.56-4.03 3.06-.21.77-.35 1.81-.35 2.36 0 1.6.83 2.57 2.57 2.57h9.24c1.74 0 2.57-.69 2.99-2.43l1.18-5.56h-11.6Z" style="fill:url(#linear-gradient-2);stroke-width:0"/><path d="M131.55 28.09h10.42l1.67-7.99h-10.42l2.5-11.81h-10.84l-2.5 11.81h-27.1c-7.57 0-10.77 2.01-12.23 8.82-.21 1.04-.35 2.22-.35 3.06 0 4.38 2.78 6.81 8.13 8.75l6.32 2.29c2.57.9 5.77 2.01 5.77 4.17 0 1.74-1.53 1.74-3.06 1.74H79.43l-1.74 7.99h24.66c7.3 0 10.07-2.29 11.39-8.55.21-1.04.35-2.29.35-3.13 0-5.49-4.38-7.5-9.45-9.31l-7.36-2.64c-2.01-.69-3.89-1.39-3.89-3.13 0-2.01 1.94-2.09 3.4-2.09h32.54l-9.24 2.82-2.94 13.79c-.21 1.04-.35 2.23-.35 3.13 0 6.25 5.07 9.1 11.39 9.1h7.57l1.74-7.99h-2.02c-4.79 0-7.02-1.6-7.02-5.28 0-.83.14-1.88.35-2.92l2.71-12.64Z" style="fill:url(#linear-gradient-3);stroke-width:0"/><path d="M153.15 56.92c-8.89 0-12.71-3.61-12.71-11.26 0-2.5.49-6.04 1.25-9.38 3.33-14.66 7.71-16.6 22.02-16.6 10.35 0 16.95 2.43 16.95 11.12 0 1.46-.28 3.2-.69 5.07-.9 4.17-2.85 6.25-7.36 6.25h-20.77c-.21.97-.28 1.88-.28 2.64 0 2.85 1.53 4.38 6.18 4.38h17.92l-1.67 7.78h-20.84Zm13.75-22.3c1.95 0 2.29-1.32 2.5-2.22.07-.35.14-.7.14-.97 0-2.99-3.68-3.96-6.81-3.96-5.63 0-8.13 1.74-9.31 7.16h13.48Z" style="fill:url(#linear-gradient-4);stroke-width:0"/><path d="M182.31 34.69c2.43-11.53 8.06-14.59 19.59-14.59h7.29l-1.67 7.99h-4.31c-7.08 0-9.31 3.34-10.7 9.8l-4.1 19.04h-10.84l4.73-22.23Z" style="fill:url(#linear-gradient-5);stroke-width:0"/><path d="m330.98 0-11.92 56.08s-3.97 18.69-22.67 18.69h-93.84l11.92-56.08S218.44 0 237.13 0h93.84Z" style="fill:url(#linear-gradient-6);stroke-width:0"/><path class="cls-4" d="m213.11 56.92 2.29-10.7h11.12l-2.29 10.7h-11.12ZM228.84 56.92l6.11-28.83h-5.28l1.74-7.99h5.28c2.57-11.25 10.77-12.37 21.26-12.37.76 0 1.53 0 2.29.07l-1.53 7.22c-.83-.07-1.25-.07-1.81-.07-4.45 0-8.41.28-9.38 5.14h10.14l-1.74 7.99h-10.14l-6.11 28.83h-10.84ZM276.62 56.92h10.84l4.85-22.6h-10.84l-4.85 22.6z"/><path class="cls-4" d="M301.71 20.1h-31.82c-5.21 0-7.36 2.08-8.41 6.95l-6.39 29.87h10.84l5.63-26.4c.35-1.74 1.25-2.43 2.99-2.43h22.23c4.38 0 6.18 1.53 6.18 4.93 0 .76-.14 2.08-.35 3.13l-4.45 20.77H309l5-23.55c.21-1.04.35-2.29.35-3.27 0-6.6-5.14-10-12.64-10Z"/></g></svg>
